<svg width="23" height="23" viewBox="0 0 23 23" fill="none" xmlns="http://www.w3.org/2000/svg">
<path d="M2.87402 2.875L20.124 20.125M9.43312 9.50057C8.93226 10.018 8.62402 10.723 8.62402 11.5C8.62402 13.0879 9.91123 14.375 11.499 14.375C12.2872 14.375 13.0014 14.0578 13.5207 13.5441M6.22819 6.37019C4.40803 7.57116 3.02163 9.37628 2.35461 11.5C3.57577 15.3881 7.20815 18.2083 11.4992 18.2083C13.4052 18.2083 15.1813 17.6519 16.6738 16.6926M10.5407 4.839C10.856 4.8077 11.1758 4.79167 11.4992 4.79167C15.7903 4.79167 19.4227 7.61196 20.6438 11.5C20.3748 12.3567 19.9886 13.1616 19.5042 13.8958" stroke="white" stroke-width="2" stroke-linecap="round" stroke-linejoin="round"/>
</svg>
